<?xml version="1.0" encoding="UTF-8"?>
<svg version="1.1" xmlns="http://www.w3.org/2000/svg" width="225" height="211">
<path d="M0 0 C1.24136719 0.00193359 2.48273438 0.00386719 3.76171875 0.00585938 C5.70111328 0.02422852 5.70111328 0.02422852 7.6796875 0.04296875 C8.98035156 0.04361328 10.28101563 0.04425781 11.62109375 0.04492188 C21.27399554 0.09012277 21.27399554 0.09012277 23.5546875 1.23046875 C22.20359784 4.19372819 20.66762102 6.4383204 18.4921875 8.85546875 C17.8734375 9.55027344 17.2546875 10.24507812 16.6171875 10.9609375 C15.1879747 12.53361295 13.74983297 14.09820254 12.3046875 15.65625 C3.90088036 23.95337089 3.90088036 23.95337089 -0.76171875 34.39453125 C-0.52755041 38.18380072 0.56389834 40.2418611 2.9296875 43.16796875 C7.07534302 46.42526952 10.3808918 46.66892601 15.5546875 46.23046875 C22.29992725 42.85784887 27.72573874 36.6116824 32.515625 30.88671875 C34.5546875 29.23046875 34.5546875 29.23046875 36.90234375 29.1484375 C40.52027361 30.62438238 43.13271883 32.95393045 45.9921875 35.54296875 C47.2392825 36.64357014 48.48668702 37.74382088 49.734375 38.84375 C50.68521973 39.68993896 50.68521973 39.68993896 51.65527344 40.55322266 C54.03507088 42.65466333 56.4546148 44.70621003 58.87817383 46.75683594 C64.27994877 51.33427712 69.58617179 56.00756428 74.8046875 60.79296875 C75.62851929 61.54416992 75.62851929 61.54416992 76.46899414 62.31054688 C82.32639231 67.73024323 82.32639231 67.73024323 82.9921875 72.10546875 C82.5546875 75.23046875 82.5546875 75.23046875 80.4921875 78.16796875 C77.5546875 80.23046875 77.5546875 80.23046875 74.1796875 80.1484375 C69.95648776 79.07898498 68.51560297 77.79806615 65.6171875 74.60546875 C62.53784189 71.33366404 59.48455774 68.14536781 56.1171875 65.16796875 C55.19099609 64.34619141 55.19099609 64.34619141 54.24609375 63.5078125 C52.46923099 62.02455373 52.46923099 62.02455373 49.5546875 61.23046875 C51.17618978 65.62115999 54.51622934 68.15675731 57.9296875 71.16796875 C65.84213961 78.18850383 65.84213961 78.18850383 68.5546875 82.23046875 C68.34416118 88.44099507 68.34416118 88.44099507 65.5546875 91.23046875 C63.2421875 92.04296875 63.2421875 92.04296875 60.5546875 92.23046875 C56.51142187 90.21550799 53.80071714 87.57878816 50.7421875 84.29296875 C46.59001459 80.02874319 43.0443126 77.46698268 37.5546875 75.23046875 C38.74724299 78.80813521 39.86635181 79.43465145 42.8671875 81.60546875 C51.23844204 87.97721981 51.23844204 87.97721981 52.0546875 93.79296875 C51.5546875 97.23046875 51.5546875 97.23046875 49.8671875 99.60546875 C47.20759168 101.47437392 45.82572406 102.31025013 42.5546875 102.23046875 C38.55315848 99.08641023 36.79023635 95.70156645 34.5546875 91.23046875 C32.37675016 89.19772724 30.85624834 88.31873046 27.9921875 87.48046875 C25.5546875 86.23046875 25.5546875 86.23046875 24.1796875 82.79296875 C22.8553071 78.93655436 22.8553071 78.93655436 19.0546875 77.35546875 C17.3221875 76.79859375 17.3221875 76.79859375 15.5546875 76.23046875 C14.5646875 75.90046875 13.5746875 75.57046875 12.5546875 75.23046875 C12.2453125 74.26109375 11.9359375 73.29171875 11.6171875 72.29296875 C10.86086886 69.24102714 10.86086886 69.24102714 8.9296875 67.91796875 C6.69016804 67.2696868 4.86584993 67.1222315 2.5546875 66.98046875 C0.4453125 66.7734375 0.4453125 66.7734375 -1.4453125 66.23046875 C-3.6953125 63.29296875 -3.6953125 63.29296875 -5.4453125 60.23046875 C-8.14347133 58.09054968 -9.43772061 58.23019761 -12.9453125 58.35546875 C-16.75081471 59.3068443 -17.92928328 60.34169445 -20.4453125 63.23046875 C-21.1053125 63.23046875 -21.7653125 63.23046875 -22.4453125 63.23046875 C-22.7753125 64.22046875 -23.1053125 65.21046875 -23.4453125 66.23046875 C-26.49183095 64.8554914 -28.77117229 63.28029408 -31.1953125 60.98046875 C-31.80890625 60.4184375 -32.4225 59.85640625 -33.0546875 59.27734375 C-35.00921098 56.40046088 -34.74459909 54.68443891 -34.4453125 51.23046875 C-33.46311492 48.70027346 -32.44702466 46.39504322 -31.2265625 43.98828125 C-30.89039917 43.30224823 -30.55423584 42.61621521 -30.20788574 41.90939331 C-29.13134342 39.7191277 -28.03868391 37.53737364 -26.9453125 35.35546875 C-26.24111369 33.92891499 -25.53797961 32.50183511 -24.8359375 31.07421875 C-23.43200648 28.22363333 -22.01540469 25.37986374 -20.58984375 22.54003906 C-19.11532581 19.59655534 -17.68063112 16.63747244 -16.26953125 13.66308594 C-15.73918274 12.56080154 -15.73918274 12.56080154 -15.19812012 11.43624878 C-14.52540739 10.03684191 -13.86187606 8.63297162 -13.20910645 7.22415161 C-11.95899611 4.64742312 -10.89772373 2.58320945 -8.61572266 0.80395508 C-5.68867016 0.03054155 -3.02821639 -0.01092059 0 0 Z " fill="#026ED3" transform="translate(86.4453125,90.76953125)"/>
<path d="M0 0 C1.87365234 -0.01160156 1.87365234 -0.01160156 3.78515625 -0.0234375 C5.59693359 -0.01957031 5.59693359 -0.01957031 7.4453125 -0.015625 C8.53602051 -0.01336914 9.62672852 -0.01111328 10.75048828 -0.00878906 C15.01370551 0.34431379 18.42493562 1.00243503 21.72290039 3.83984375 C23.43308797 7.41750253 23.32288853 10.92667427 23.30859375 14.8125 C23.3138356 15.64080322 23.31907745 16.46910645 23.32447815 17.32250977 C23.33089112 19.07078939 23.32957072 20.81911221 23.32104492 22.56738281 C23.31252862 25.24101552 23.34131413 27.91251547 23.37304688 30.5859375 C23.37465888 32.28645769 23.37408136 33.98698167 23.37109375 35.6875 C23.38232773 36.48551025 23.39356171 37.28352051 23.40513611 38.10571289 C23.35960725 41.73394494 23.21226036 43.81198833 20.96508789 46.73046875 C18.766725 48.32871786 17.58297365 49.08588038 14.875 49.25 C12.3125 48.75 12.3125 48.75 9.875 47.25 C6.48448884 41.63811947 6.58817776 36.66931943 6.875 30.25 C1.34291217 35.07339705 -3.97822967 40.02561211 -9.10546875 45.2734375 C-9.61288605 45.7910968 -10.12030334 46.3087561 -10.64309692 46.84210205 C-12.73260448 48.97665007 -14.81945823 51.11344345 -16.89233398 53.26416016 C-18.43333042 54.85987643 -19.98695287 56.44238156 -21.54296875 58.0234375 C-22.44813232 58.95591309 -23.3532959 59.88838867 -24.28588867 60.84912109 C-27.55579963 63.61430334 -30.09336359 64.86355893 -34.125 66.25 C-38.44192988 65.36728449 -41.0782631 62.76599812 -44.25 59.8125 C-45.09820312 59.03003906 -45.94640625 58.24757812 -46.8203125 57.44140625 C-48.61553829 55.73442037 -50.38779438 54.01559133 -52.125 52.25 C-55.1146871 53.58892714 -57.16153522 55.05542482 -59.4375 57.40234375 C-60.03820312 58.01400391 -60.63890625 58.62566406 -61.2578125 59.25585938 C-61.87398437 59.89330078 -62.49015625 60.53074219 -63.125 61.1875 C-73.32443185 71.67499112 -73.32443185 71.67499112 -78.125 71.75 C-81.36884044 71.61054518 -82.02532742 71.33022427 -84.6875 69.1875 C-86.58554428 65.30888778 -86.30305879 63.37320575 -85.125 59.25 C-83.1875 56.3125 -83.1875 56.3125 -81.125 54.25 C-80.465 54.25 -79.805 54.25 -79.125 54.25 C-78.87371338 53.67854248 -78.62242676 53.10708496 -78.36352539 52.51831055 C-75.93204131 48.06514308 -72.08337485 44.66835172 -68.5625 41.0625 C-67.78841797 40.23041016 -67.01433594 39.39832031 -66.21679688 38.54101562 C-61.87984112 34.11017074 -58.53653152 31.00382958 -52.12719727 30.90795898 C-48.82729247 31.47169104 -47.17030594 33.0112909 -44.875 35.375 C-44.04742187 36.20128906 -43.21984375 37.02757812 -42.3671875 37.87890625 C-41.62726563 38.66136719 -40.88734375 39.44382813 -40.125 40.25 C-39.08557271 41.27311341 -38.04449461 42.29456034 -37 43.3125 C-36.071875 44.2715625 -36.071875 44.2715625 -35.125 45.25 C-31.02391114 43.62843976 -28.29351833 40.6732297 -25.265625 37.5859375 C-24.71638367 37.03386627 -24.16714233 36.48179504 -23.60125732 35.91299438 C-21.85440707 34.15498185 -20.11465399 32.3901311 -18.375 30.625 C-17.18926409 29.4292292 -16.0030712 28.23391135 -14.81640625 27.0390625 C-11.91394915 24.11459747 -9.0178359 21.18398126 -6.125 18.25 C-7.57132813 18.21132813 -7.57132813 18.21132813 -9.046875 18.171875 C-10.31015625 18.11515625 -11.5734375 18.0584375 -12.875 18 C-14.12796875 17.95359375 -15.3809375 17.9071875 -16.671875 17.859375 C-20.57544418 17.17050985 -21.77660141 16.37548426 -24.125 13.25 C-25.23257358 9.77960278 -25.36505128 7.95415042 -24.1875 4.5 C-18.5608456 -1.63816844 -7.61243349 -0.04742949 0 0 Z " fill="#0FB2B2" transform="translate(162.125,5.75)"/>
<path d="M0 0 C2.13590894 0.19299942 4.27278414 0.35356595 6.41137695 0.51367188 C7.78069795 0.63668019 9.1498475 0.76161559 10.51879883 0.88867188 C11.75315674 0.99453613 12.98751465 1.10040039 14.25927734 1.20947266 C19.44248935 2.55113551 21.61962084 5.46782782 24.30322266 9.95239258 C24.81264404 10.99741943 25.32206543 12.04244629 25.84692383 13.11914062 C26.42240967 14.28566162 26.99789551 15.45218262 27.59082031 16.65405273 C28.19097752 17.89609633 28.79066021 19.13836932 29.38989258 20.38085938 C30.00893015 21.64892708 30.62880708 22.91658537 31.24951172 24.18383789 C32.17219882 26.06815918 33.09404287 27.95284075 34.01164246 29.83964539 C35.72319695 33.35402983 37.47909289 36.83809168 39.30395508 40.29492188 C39.68575928 41.02412842 40.06756348 41.75333496 40.4609375 42.50463867 C41.14077876 43.79550243 41.83037312 45.08129891 42.53173828 46.3605957 C43.87507974 48.94542616 44.58078023 50.81052109 44.54223633 53.74414062 C43.30191096 56.73196895 41.80165179 57.91728306 39.20239258 59.81835938 C38.4109082 60.41132813 37.61942383 61.00429687 36.80395508 61.61523438 C34.57739258 63.06835938 34.57739258 63.06835938 31.57739258 64.06835938 C29.92114258 62.98632812 29.92114258 62.98632812 28.07739258 61.25585938 C27.37356445 60.60875 26.66973633 59.96164063 25.94458008 59.29492188 C24.77282227 58.19277344 24.77282227 58.19277344 23.57739258 57.06835938 C17.57901178 51.53552455 11.54869938 46.17963796 5.12426758 41.14648438 C1.3336314 38.0535113 -2.21853674 34.71530007 -5.78198242 31.36523438 C-10.71482331 26.7879256 -10.71482331 26.7879256 -16.92651367 24.92382812 C-20.62008657 26.61743823 -22.76202867 29.31705588 -25.36010742 32.38085938 C-34.187404 42.66608364 -34.187404 42.66608364 -39.65307617 43.34570312 C-42.51515747 42.848695 -44.93330359 42.39982326 -47.36010742 40.75585938 C-48.58949639 38.80330042 -49.06205405 37.34916624 -49.42260742 35.06835938 C-47.64663919 29.01055124 -43.43378063 24.47056549 -39.11010742 20.06835938 C-37.94511279 18.8518034 -36.78104247 17.63436158 -35.61791992 16.41601562 C-35.06394531 15.83996582 -34.5099707 15.26391602 -33.93920898 14.67041016 C-32.04963996 12.67437798 -30.26047247 10.6036562 -28.48510742 8.50585938 C-19.89057728 -1.35879838 -12.54762465 -1.16762418 0 0 Z " fill="#0FB2B2" transform="translate(138.422607421875,90.931640625)"/>
<path d="M0 0 C8.4102092 1.85309694 15.82471078 6.5020889 23.14990234 10.89794922 C24.90526759 11.94357058 26.69618555 12.92881829 28.48828125 13.91015625 C31 16 31 16 31.29467773 18.80712891 C30.98745022 22.1359785 30.27812755 24.19900105 28.796875 27.17578125 C28.31653809 28.15732178 27.83620117 29.1388623 27.34130859 30.15014648 C26.81617676 31.19372314 26.29104492 32.2372998 25.75 33.3125 C24.65313925 35.53881299 23.55680117 37.76538355 22.4609375 39.9921875 C21.89213867 41.13913086 21.32333984 42.28607422 20.73730469 43.46777344 C18.9954629 47.00922468 17.2920614 50.56659482 15.6015625 54.1328125 C15.06047852 55.27322998 14.51939453 56.41364746 13.96191406 57.58862305 C12.91766932 59.79230077 11.87529955 61.99686812 10.83496094 64.20239258 C10.12388184 65.69355591 10.12388184 65.69355591 9.3984375 67.21484375 C8.77461182 68.53150024 8.77461182 68.53150024 8.13818359 69.87475586 C7 72 7 72 5 74 C-2.27883712 73.84011803 -8.34588956 71.08349981 -14.9375 68.1875 C-15.99001953 67.74857422 -17.04253906 67.30964844 -18.12695312 66.85742188 C-19.12533203 66.42365234 -20.12371094 65.98988281 -21.15234375 65.54296875 C-22.5134729 64.9555188 -22.5134729 64.9555188 -23.90209961 64.35620117 C-26 63 -26 63 -26.93017578 61.23754883 C-27.03010731 58.03519752 -26.08089048 55.65534296 -24.96484375 52.65625 C-24.73731918 52.04358276 -24.50979462 51.43091553 -24.27537537 50.79968262 C-21.66733978 43.90492763 -18.63358491 37.19842826 -15.5625 30.5 C-14.45735498 28.0739451 -13.35559603 25.64637885 -12.25390625 23.21875 C-11.71523926 22.03796875 -11.17657227 20.8571875 -10.62158203 19.640625 C-9.49796328 17.11798079 -8.40903703 14.59926599 -7.35888672 12.046875 C-7.09301254 11.40528442 -6.82713837 10.76369385 -6.5532074 10.10266113 C-5.81941944 8.32091598 -5.09674394 6.53460607 -4.37475586 4.74804688 C-3 2 -3 2 0 0 Z " fill="#0371D5" transform="translate(41,71)"/>
<path d="M0 0 C1.51293945 2.07885742 1.51293945 2.07885742 2.80078125 4.91796875 C3.30432129 6.0064209 3.80786133 7.09487305 4.32666016 8.21630859 C4.88511834 9.47723889 5.44285745 10.73848784 6 12 C6.64131005 13.41667926 7.28377539 14.83283597 7.92724609 16.24853516 C10.04222494 20.92414253 12.11599896 25.61750969 14.1875 30.3125 C14.9053478 31.93305399 15.62344534 33.55349737 16.34179688 35.17382812 C19.80877753 43.00197537 19.80877753 43.00197537 21.15264893 46.06959534 C21.72413122 47.3715257 22.30104347 48.6710843 22.88299561 49.96836853 C24.05402353 52.61403618 24.98250397 54.74174337 25.1796875 57.65234375 C23.25629097 61.48003022 19.8716392 62.73173776 16.125 64.5625 C14.97112793 65.14294067 14.97112793 65.14294067 13.79394531 65.73510742 C11.54129522 66.85082455 9.27557179 67.93193771 7 69 C5.31777344 69.79664063 5.31777344 69.79664063 3.6015625 70.609375 C-1.65872597 72.82878438 -1.65872597 72.82878438 -4 73 C-9.87774071 69.65764368 -12.11544366 63.63264319 -14.9921875 57.8125 C-15.54238556 56.71784424 -16.09258362 55.62318848 -16.65945435 54.49536133 C-17.81663445 52.18507692 -18.9677813 49.871762 -20.11328125 47.55566406 C-21.87279703 44.00444623 -23.65760169 40.46677996 -25.4453125 36.9296875 C-26.56664457 34.68305985 -27.68648801 32.43568845 -28.8046875 30.1875 C-29.341008 29.12700439 -29.87732849 28.06650879 -30.42990112 26.97387695 C-31.15658493 25.49213989 -31.15658493 25.49213989 -31.89794922 23.98046875 C-32.32921112 23.11317139 -32.76047302 22.24587402 -33.20480347 21.35229492 C-34.09809391 18.70982544 -34.04428204 17.55594059 -33 15 C-26.47911535 8.98723623 -8.74073986 -3.05655669 0 0 Z " fill="#0371D5" transform="translate(196,73)"/>
<path d="M0 0 C1.51293945 2.07885742 1.51293945 2.07885742 2.80078125 4.91796875 C3.30432129 6.0064209 3.80786133 7.09487305 4.32666016 8.21630859 C4.88511834 9.47723889 5.44285745 10.73848784 6 12 C6.64131005 13.41667926 7.28377539 14.83283597 7.92724609 16.24853516 C10.04222494 20.92414253 12.11599896 25.61750969 14.1875 30.3125 C14.9053478 31.93305399 15.62344534 33.55349737 16.34179688 35.17382812 C19.80877753 43.00197537 19.80877753 43.00197537 21.15264893 46.06959534 C21.72413122 47.3715257 22.30104347 48.6710843 22.88299561 49.96836853 C24.05402353 52.61403618 24.98250397 54.74174337 25.1796875 57.65234375 C23.25629097 61.48003022 19.8716392 62.73173776 16.125 64.5625 C14.97112793 65.14294067 14.97112793 65.14294067 13.79394531 65.73510742 C11.54129522 66.85082455 9.27557179 67.93193771 7 69 C5.31777344 69.79664063 5.31777344 69.79664063 3.6015625 70.609375 C-1.65872597 72.82878438 -1.65872597 72.82878438 -4 73 C-9.77874361 69.67871975 -11.9304981 63.93415454 -14.73828125 58.1796875 C-15.52672676 56.59717697 -15.52672676 56.59717697 -16.33110046 54.98269653 C-17.43673118 52.75801768 -18.53661247 50.53047337 -19.63110352 48.30029297 C-21.31256701 44.87486349 -23.01109905 41.45833749 -24.71289062 38.04296875 C-25.78485628 35.88070485 -26.8558538 33.71796066 -27.92578125 31.5546875 C-28.6897094 30.01408157 -28.6897094 30.01408157 -29.46907043 28.44235229 C-30.16560982 27.0204509 -30.16560982 27.0204509 -30.8762207 25.56982422 C-31.4931353 24.31551102 -31.4931353 24.31551102 -32.12251282 23.03585815 C-33 21 -33 21 -33 19 C-32.34 19 -31.68 19 -31 19 C-30.44570312 20.13179687 -29.89140625 21.26359375 -29.3203125 22.4296875 C-28.5887537 23.91156303 -27.85697122 25.39332815 -27.125 26.875 C-26.76019531 27.62136719 -26.39539063 28.36773437 -26.01953125 29.13671875 C-25.66503906 29.85214844 -25.31054688 30.56757812 -24.9453125 31.3046875 C-24.62062988 31.96452637 -24.29594727 32.62436523 -23.96142578 33.30419922 C-22.99724181 35.18034686 -22.99724181 35.18034686 -21 37 C-20.32890039 38.99851689 -19.66317526 40.99883958 -19 43 C-17.81147392 45.62556853 -16.50170661 48.18545477 -15.1875 50.75 C-14.47265625 52.16145833 -13.7578125 53.57291667 -13.04296875 54.984375 C-12.69540527 55.66693359 -12.3478418 56.34949219 -11.98974609 57.05273438 C-10.64662107 59.6952517 -9.32262352 62.34717345 -8 65 C-7.4121875 66.175625 -7.4121875 66.175625 -6.8125 67.375 C-6.544375 67.91125 -6.27625 68.4475 -6 69 C0.07631734 69.47826498 3.48604312 68.15439547 8.5625 65.1875 C9.83428802 64.47203838 11.10641926 63.75718648 12.37890625 63.04296875 C12.9836377 62.6979834 13.58836914 62.35299805 14.21142578 61.99755859 C16.76313382 60.57437008 19.3752104 59.2820621 22 58 C21.43175186 53.0751828 19.84348358 49.03621529 17.6875 44.625 C17.37063232 43.96089111 17.05376465 43.29678223 16.72729492 42.61254883 C15.13198004 39.28186455 13.49361943 35.9757696 11.8125 32.6875 C10.45169806 30.00591971 9.28839131 27.29848421 8.1875 24.5 C7.46117912 22.66553738 6.73152737 20.83239266 6 19 C5.60675537 18.01362549 5.60675537 18.01362549 5.20556641 17.00732422 C4.32011299 14.81027127 3.41209176 12.62361315 2.5 10.4375 C2.21535889 9.72207031 1.93071777 9.00664063 1.63745117 8.26953125 C0.10494736 4.49558686 0.10494736 4.49558686 -2.8671875 1.87890625 C-5.86704301 2.04922772 -7.9538544 3.14642757 -10.625 4.5 C-12.38952657 5.38935924 -14.17755878 6.23631035 -16 7 C-16.66 6.67 -17.32 6.34 -18 6 C-16.39805929 5.01719585 -14.79336258 4.03888283 -13.1875 3.0625 C-12.29417969 2.51722656 -11.40085938 1.97195312 -10.48046875 1.41015625 C-6.61314142 -0.78843456 -4.2321919 -1.47995875 0 0 Z " fill="#1359AD" transform="translate(196,73)"/>
<path d="M0 0 C2.54425853 1.2449341 5.08534361 2.49573888 7.625 3.75 C8.33785156 4.09804687 9.05070312 4.44609375 9.78515625 4.8046875 C18.7896412 9.265625 18.7896412 9.265625 22 12 C22.45596621 16.37811291 21.73862522 19.27356781 19.796875 23.17578125 C19.31653809 24.15732178 18.83620117 25.1388623 18.34130859 26.15014648 C17.81617676 27.19372314 17.29104492 28.2372998 16.75 29.3125 C15.65313925 31.53881299 14.55680117 33.76538355 13.4609375 35.9921875 C12.89213867 37.13913086 12.32333984 38.28607422 11.73730469 39.46777344 C9.9954629 43.00922468 8.2920614 46.56659482 6.6015625 50.1328125 C6.06047852 51.27322998 5.51939453 52.41364746 4.96191406 53.58862305 C3.91766932 55.79230077 2.87529955 57.99686812 1.83496094 60.20239258 C1.12388184 61.69355591 1.12388184 61.69355591 0.3984375 63.21484375 C-0.22538818 64.53150024 -0.22538818 64.53150024 -0.86181641 65.87475586 C-2 68 -2 68 -4 70 C-11.27883712 69.84011803 -17.34588956 67.08349981 -23.9375 64.1875 C-24.99001953 63.74857422 -26.04253906 63.30964844 -27.12695312 62.85742188 C-28.12533203 62.42365234 -29.12371094 61.98988281 -30.15234375 61.54296875 C-31.5134729 60.9555188 -31.5134729 60.9555188 -32.90209961 60.35620117 C-35 59 -35 59 -35.83886719 56.99755859 C-36.8656099 44.2690603 -24.26790885 25.62789912 -19 14 C-17.50252885 17.86420044 -18.55489741 20.06041464 -20.16796875 23.76171875 C-20.89016602 25.44104492 -20.89016602 25.44104492 -21.62695312 27.15429688 C-22.14193359 28.32025391 -22.65691406 29.48621094 -23.1875 30.6875 C-23.68314453 31.83412109 -24.17878906 32.98074219 -24.68945312 34.16210938 C-26.50773334 38.35832542 -28.32560095 42.55186367 -30.25634766 46.69775391 C-30.62163574 47.48456543 -30.98692383 48.27137695 -31.36328125 49.08203125 C-31.68208252 49.75081299 -32.00088379 50.41959473 -32.3293457 51.10864258 C-33.22280047 53.29387776 -33.22280047 53.29387776 -33 57 C-29.27743701 58.68170573 -25.54597168 60.34267004 -21.8125 62 C-20.22985352 62.71542969 -20.22985352 62.71542969 -18.61523438 63.4453125 C-17.59365234 63.89648438 -16.57207031 64.34765625 -15.51953125 64.8125 C-14.58214111 65.23144531 -13.64475098 65.65039062 -12.67895508 66.08203125 C-9.93386424 67.02266203 -7.87765509 67.18256337 -5 67 C-4.49210937 65.98421875 -3.98421875 64.9684375 -3.4609375 63.921875 C-2.96605835 62.93223755 -2.96605835 62.93223755 -2.46118164 61.92260742 C-1.72833736 60.45675413 -0.99575881 58.99076796 -0.26342773 57.5246582 C1.33539065 54.32457942 2.93635933 51.12583861 4.55078125 47.93359375 C7.69744658 41.70231001 10.74175738 35.42401411 13.75 29.125 C14.13921631 28.31571045 14.52843262 27.5064209 14.92944336 26.67260742 C16.90687023 22.50994455 18.66291633 18.42375554 20 14 C14.79711823 9.97959136 9.45227309 7.17287971 3.4765625 4.4296875 C1 3 1 3 0 0 Z " fill="#1156AE" transform="translate(50,75)"/>
<path d="M0 0 C2.375 1.875 2.375 1.875 3.4375 4.125 C3.3040096 9.99857778 -0.42658447 13.95772453 -4.4375 17.875 C-7.59797968 20.52648857 -8.23773477 20.875 -12.5625 20.875 C-15.625 19.875 -15.625 19.875 -16.625 18.875 C-17.21237728 15.27731416 -17.28899246 12.85639544 -15.203125 9.7734375 C-13.41059719 7.72811731 -11.55607994 5.7894327 -9.625 3.875 C-8.8825 3.070625 -8.14 2.26625 -7.375 1.4375 C-4.67668755 -0.97170754 -3.36024002 -1.44010287 0 0 Z " fill="#0EB1B4" transform="translate(104.625,171.125)"/>
<path d="M0 0 C2.7890625 0.42578125 2.7890625 0.42578125 4.7265625 2.11328125 C6.104626 5.11259593 5.73649724 6.28597336 4.7890625 9.42578125 C3.046875 12.03125 3.046875 12.03125 0.9140625 14.61328125 C0.21539062 15.47308594 -0.48328125 16.33289063 -1.203125 17.21875 C-3.5381182 19.78542541 -5.22725759 21.27822926 -8.7109375 21.80078125 C-11.2109375 21.42578125 -11.2109375 21.42578125 -13.0859375 19.80078125 C-14.63601855 16.52838793 -14.14445644 14.90641296 -13.2109375 11.42578125 C-11.13671875 8.43359375 -11.13671875 8.43359375 -8.5234375 5.55078125 C-7.67394531 4.58398438 -6.82445313 3.6171875 -5.94921875 2.62109375 C-3.2109375 0.42578125 -3.2109375 0.42578125 0 0 Z " fill="#0FB1B6" transform="translate(89.2109375,160.57421875)"/>
<path d="M0 0 C2.99742565 1.15285602 3.94401314 2.10773542 5.4375 4.9375 C5.84492559 8.15401785 5.66202045 9.57593459 3.93359375 12.359375 C-1.57088279 18.5845515 -1.57088279 18.5845515 -6.25 20.25 C-10.22271807 19.87521528 -11.77619748 18.72380252 -14.5625 15.9375 C-14.03577573 11.90630356 -12.98577642 9.80017875 -10.25 6.8125 C-9.65574219 6.14992187 -9.06148438 5.48734375 -8.44921875 4.8046875 C-3.50782145 -0.08555662 -3.50782145 -0.08555662 0 0 Z " fill="#0CB2B6" transform="translate(114.5625,182.0625)"/>
<path d="M0 0 C14.55741127 10.11482255 14.55741127 10.11482255 18 17 C18.53758841 21.03191305 18.3075996 22.5619036 15.9375 25.9375 C13 28 13 28 9.625 27.91796875 C5.40180026 26.84851623 3.96091547 25.5675974 1.0625 22.375 C-2.01684561 19.10319529 -5.07012976 15.91489906 -8.4375 12.9375 C-9.05496094 12.38964844 -9.67242187 11.84179688 -10.30859375 11.27734375 C-12.08545651 9.79408498 -12.08545651 9.79408498 -15 9 C-13.37849772 13.39069124 -10.03845816 15.92628856 -6.625 18.9375 C1.28745211 25.95803508 1.28745211 25.95803508 4 30 C3.78947368 36.21052632 3.78947368 36.21052632 1 39 C-1.3125 39.8125 -1.3125 39.8125 -4 40 C-8.04449856 37.97439707 -10.88026751 35.30409704 -14 32.0625 C-17.1763728 28.7719763 -20.37372491 25.79093672 -24 23 C-19.01046469 23.37194718 -16.61238611 25.93774331 -13.375 29.4375 C-9.20219675 33.8414991 -6.18452793 36.99710358 0 38 C0.62910498 35.14483123 1.11336127 32.88261502 1 30 C-0.97590636 27.27127334 -0.97590636 27.27127334 -4 25 C-5.19646216 23.77955531 -6.38362282 22.54993911 -7.5625 21.3125 C-9.90878584 18.86867803 -11.98269007 17.49623805 -15 16 C-16.8125 13.625 -16.8125 13.625 -18 11 C-17.6875 8.6875 -17.6875 8.6875 -17 7 C-15.23828125 6.34765625 -15.23828125 6.34765625 -13 6 C-7.51424301 8.70329056 -3.591919 13.50566105 0.27734375 18.09765625 C3.53314159 21.69306112 6.92429101 24.72925535 11.875 25.375 C13.97781247 25.21334165 13.97781247 25.21334165 15 24 C15.2838412 19.83699572 15.04341294 16.67814329 13 13 C11.67300405 12.32080638 10.33855974 11.65610978 9 11 C7.56802957 9.92137292 6.17222053 8.79339025 4.8125 7.625 C4.11769531 7.03976563 3.42289063 6.45453125 2.70703125 5.8515625 C0.87598765 3.86548775 0.38925808 2.63765924 0 0 Z " fill="#1255AE" transform="translate(151,143)"/>
<path d="M0 0 C3.43183318 0.84044894 5.48528134 1.48528134 8 4 C8.23040344 8.7232705 6.21287269 11.32983452 3.3125 14.8125 C0.74425365 17.53236018 -0.74712562 18.89787766 -4.25 20.3125 C-7 20 -7 20 -9.4375 18.4375 C-11 16 -11 16 -11.1875 13.25 C-9.1105951 7.56583923 -4.99296209 3.3286414 0 0 Z " fill="#0EB1B4" transform="translate(73,152)"/>
<path d="M0 0 C5.53794617 2.44549492 10.03143681 6.48455845 14 11 C14.82532568 14.93616863 14.8206596 16.54104959 12.875 20 C10.06863762 21.49672661 7.99840718 20.73294398 5 20 C3.68373308 16.38026598 3 13.90432869 3 10 C2.2265625 9.8453125 2.2265625 9.8453125 1.4375 9.6875 C-1.86026435 8.75736134 -4.86633332 7.38604488 -8 6 C-8 5.34 -8 4.68 -8 4 C-4.67465243 2.89155081 -2.37817425 3.15545644 1 4 C0.67 2.68 0.34 1.36 0 0 Z " fill="#046ED6" transform="translate(122,170)"/>
<path d="M0 0 C3.62498334 -0.02893932 7.24993713 -0.04677792 10.875 -0.0625 C12.42380859 -0.07506836 12.42380859 -0.07506836 14.00390625 -0.08789062 C14.99003906 -0.09111328 15.97617188 -0.09433594 16.9921875 -0.09765625 C18.35899658 -0.10551147 18.35899658 -0.10551147 19.75341797 -0.11352539 C22 0 22 0 24 1 C22.64891034 3.96325944 21.11293352 6.20785165 18.9375 8.625 C18.31875 9.31980469 17.7 10.01460937 17.0625 10.73046875 C15.6332872 12.3031442 14.19514547 13.86773379 12.75 15.42578125 C4.34619286 23.72290214 4.34619286 23.72290214 -0.31640625 34.1640625 C-0.08223791 37.95333197 1.00921084 40.01139235 3.375 42.9375 C6.89460504 45.70290396 9.34413815 46.12544727 13.6875 46.0625 C14.49574219 46.05347656 15.30398437 46.04445312 16.13671875 46.03515625 C16.75160156 46.02355469 17.36648437 46.01195312 18 46 C17.67 46.66 17.34 47.32 17 48 C6.44686228 49.03050531 6.44686228 49.03050531 1.9375 45.5625 C-1.62338278 41.95025834 -2.7952907 38.00607288 -3 33 C-2.0380371 28.40395506 1.02868381 25.50462935 4 22 C4.33 21.01 4.66 20.02 5 19 C5.99 19 6.98 19 8 19 C8.2475 18.443125 8.495 17.88625 8.75 17.3125 C10.71324105 13.68050407 13.23324967 10.74484318 16.1875 7.875 C18.22886406 6.0333941 18.22886406 6.0333941 19 3 C17.453125 3.2784375 17.453125 3.2784375 15.875 3.5625 C12.18129147 3.97953161 9.6095317 3.69118692 6 3 C4.00034285 2.96296931 1.99943335 2.95239444 0 3 C0 2.01 0 1.02 0 0 Z " fill="#0F58AD" transform="translate(86,91)"/>
<path d="M0 0 C0 0.66 0 1.32 0 2 C-0.76521973 2.42708252 -1.53043945 2.85416504 -2.31884766 3.29418945 C-5.51435396 5.32724377 -6.32243697 6.88389165 -7.8984375 10.29296875 C-8.40213867 11.36337402 -8.90583984 12.4337793 -9.42480469 13.53662109 C-10.20452637 15.25099365 -10.20452637 15.25099365 -11 17 C-11.80679199 18.72790771 -11.80679199 18.72790771 -12.62988281 20.49072266 C-14.59557283 24.70845248 -16.53841077 28.9364457 -18.47363281 33.16821289 C-23.81662908 44.83868484 -23.81662908 44.83868484 -26.40234375 49.18359375 C-28.23846582 51.85923281 -28.23846582 51.85923281 -27.9375 54.75 C-26.95221948 57.11467326 -25.96267672 58.37865836 -24 60 C-24.33 60.66 -24.66 61.32 -25 62 C-29.88937696 57.84402958 -29.88937696 57.84402958 -30.35742188 54.27294922 C-29.92603667 50.32271011 -28.55328595 47.25228277 -26.78125 43.7578125 C-26.44508667 43.07177948 -26.10892334 42.38574646 -25.76257324 41.67892456 C-24.68603092 39.48865895 -23.59337141 37.30690489 -22.5 35.125 C-21.79580119 33.69844624 -21.09266711 32.27136636 -20.390625 30.84375 C-18.98669398 27.99316458 -17.57009219 25.14939499 -16.14453125 22.30957031 C-14.67001331 19.36608659 -13.23531862 16.40700369 -11.82421875 13.43261719 C-11.29387024 12.33033279 -11.29387024 12.33033279 -10.75280762 11.20578003 C-10.08009489 9.80637316 -9.41656356 8.40250287 -8.76379395 6.99368286 C-7.43630305 4.2574575 -6.43495631 2.29739483 -3.89257812 0.55908203 C-2 0 -2 0 0 0 Z " fill="#1055AD" transform="translate(82,91)"/>
<path d="M0 0 C2.99742565 1.15285602 3.94401314 2.10773542 5.4375 4.9375 C5.84492559 8.15401785 5.66202045 9.57593459 3.93359375 12.359375 C-2.30688651 19.41692003 -2.30688651 19.41692003 -6.5625 20 C-7.5525 19.979375 -8.5425 19.95875 -9.5625 19.9375 C-9.5625 19.2775 -9.5625 18.6175 -9.5625 17.9375 C-8.675625 17.710625 -7.78875 17.48375 -6.875 17.25 C-3.01279987 15.71969429 -1.1845867 14.14227263 1.4375 10.9375 C2.77313611 7.77048577 2.77313611 7.77048577 3.4375 4.9375 C2.82261719 5.16566406 2.20773438 5.39382812 1.57421875 5.62890625 C0.76597656 5.91636719 -0.04226562 6.20382813 -0.875 6.5 C-1.67550781 6.79003906 -2.47601563 7.08007812 -3.30078125 7.37890625 C-5.5625 7.9375 -5.5625 7.9375 -8.5625 6.9375 C-8.81 7.494375 -9.0575 8.05125 -9.3125 8.625 C-10.77856015 11.33721127 -12.59239471 13.57337365 -14.5625 15.9375 C-14.03577573 11.90630356 -12.98577642 9.80017875 -10.25 6.8125 C-9.65574219 6.14992187 -9.06148438 5.48734375 -8.44921875 4.8046875 C-3.50782145 -0.08555662 -3.50782145 -0.08555662 0 0 Z " fill="#0DAFAF" transform="translate(114.5625,182.0625)"/>
<path d="M0 0 C3.35325767 3.35325767 3.36537122 4.48535181 3.44248962 9.0309906 C3.43808617 10.23574791 3.43808617 10.23574791 3.43359375 11.46484375 C3.4388356 12.29456192 3.44407745 13.12428009 3.44947815 13.97914124 C3.45589946 15.73339723 3.4545599 17.48769628 3.44604492 19.24194336 C3.43754138 21.924447 3.46628191 24.60481655 3.49804688 27.28710938 C3.49965917 28.99218686 3.49908081 30.69726812 3.49609375 32.40234375 C3.51294472 33.60406471 3.51294472 33.60406471 3.53013611 34.83006287 C3.48470662 38.46600721 3.34097518 40.5567715 1.09008789 43.48266602 C-1.10824619 45.07858312 -2.29331501 45.83595849 -5 46 C-8.7810303 44.91970563 -9.76204175 44.35693737 -12 41 C-12 40.01 -12 39.02 -12 38 C-11.34 38 -10.68 38 -10 38 C-9.34 39.32 -8.68 40.64 -8 42 C-5.03 42 -2.06 42 1 42 C0.505 21.21 0.505 21.21 0 0 Z " fill="#209797" transform="translate(182,9)"/>
<path d="M0 0 C4.00401967 1.36307053 6.63435702 3.15619164 9.75 6 C10.52859375 6.70125 11.3071875 7.4025 12.109375 8.125 C14.71166469 10.70578317 14.96778906 11.65212186 15.3125 15.375 C15 19 15 19 13.3125 21.375 C10.65290418 23.24390517 9.27103656 24.07978138 6 24 C1.99847098 20.85594148 0.23554885 17.4710977 -2 13 C-4.51871028 10.64378716 -6.61348181 9.60473539 -10 9 C-9.67 8.01 -9.34 7.02 -9 6 C-5.03138385 7.26093155 -1.44194987 8.63073042 2 11 C3.52155137 14.3110171 3.9085395 17.37675698 4 21 C6.64 21 9.28 21 12 21 C12.72869954 17.29577735 13.03863658 15.55885771 12 12 C9.31981518 8.60976622 5.94426632 5.92643708 2.625 3.1875 C1.75875 2.465625 0.8925 1.74375 0 1 C0 0.67 0 0.34 0 0 Z " fill="#1254B0" transform="translate(123,169)"/>
<path d="M0 0 C0.99 0.33 1.98 0.66 3 1 C-0.98884806 5.08810162 -4.99094392 9.16259635 -9.00561523 13.2253418 C-10.36801656 14.60779509 -11.72679839 15.9938255 -13.08178711 17.38354492 C-15.03587552 19.38643173 -17.00284048 21.37587463 -18.97265625 23.36328125 C-19.57086685 23.98213699 -20.16907745 24.60099274 -20.78541565 25.23860168 C-24.59641434 29.05158529 -27.8383059 31.33984238 -33 33 C-35.875 32.3125 -35.875 32.3125 -38 31 C-38.33 30.34 -38.66 29.68 -39 29 C-35.04 29 -31.08 29 -27 29 C-26.34 27.68 -25.68 26.36 -25 25 C-23.484375 23.54296875 -23.484375 23.54296875 -21.75 22.1875 C-19.22243982 20.11427399 -17.07448486 18.02618721 -15 15.5 C-12.48082334 12.44339898 -9.72896105 10.00223789 -6.6796875 7.48828125 C-4.12760416 5.22701671 -2.10393205 2.67773171 0 0 Z " fill="#1B9794" transform="translate(161,39)"/>
<path d="M0 0 C2.375 1.875 2.375 1.875 3.4375 4.125 C3.3040096 9.99857778 -0.42658447 13.95772453 -4.4375 17.875 C-7.91095071 20.80104009 -7.91095071 20.80104009 -10.69921875 21.08984375 C-12.625 20.8125 -12.625 20.8125 -15.625 19.875 C-14.965 19.215 -14.305 18.555 -13.625 17.875 C-12.4184375 17.9059375 -12.4184375 17.9059375 -11.1875 17.9375 C-8.56811304 18.14964779 -8.56811304 18.14964779 -6.9375 16.375 C-6.504375 15.88 -6.07125 15.385 -5.625 14.875 C-4.965 14.875 -4.305 14.875 -3.625 14.875 C-3.625 14.215 -3.625 13.555 -3.625 12.875 C-2.965 12.875 -2.305 12.875 -1.625 12.875 C0.17730168 9.04510894 0.57122241 6.09378192 0.375 1.875 C-6.02769085 2.80872575 -8.81486477 5.70285782 -13.0234375 10.48828125 C-14.72102381 13.0180989 -15.2535017 14.876478 -15.625 17.875 C-15.955 17.875 -16.285 17.875 -16.625 17.875 C-17.19481968 14.61888752 -17.11865847 12.58488904 -15.20703125 9.8359375 C-13.4042934 7.78335325 -11.54612582 5.81682761 -9.625 3.875 C-8.8825 3.070625 -8.14 2.26625 -7.375 1.4375 C-4.67668755 -0.97170754 -3.36024002 -1.44010287 0 0 Z " fill="#1D8F94" transform="translate(104.625,171.125)"/>
<path d="M0 0 C3.88770733 1.60812277 6.6454308 4.13375717 9.75390625 6.92578125 C10.67139648 7.72725586 10.67139648 7.72725586 11.60742188 8.54492188 C14.74324369 11.301055 17.78160263 14.11640122 20.69140625 17.11328125 C16.61811857 16.54647943 14.28520446 14.39736189 11.19140625 11.80078125 C10.25296875 11.02089844 9.31453125 10.24101562 8.34765625 9.4375 C5.69140625 7.11328125 5.69140625 7.11328125 3.48828125 4.8671875 C1.53975747 2.96525886 0.35087967 2.49320602 -2.30859375 2.11328125 C-2.30859375 2.77328125 -2.30859375 3.43328125 -2.30859375 4.11328125 C-2.96859375 4.11328125 -3.62859375 4.11328125 -4.30859375 4.11328125 C-4.30859375 4.77328125 -4.30859375 5.43328125 -4.30859375 6.11328125 C-5.74147318 7.31290124 -7.17833054 8.50829153 -8.640625 9.671875 C-11.21281901 11.89468435 -13.2029903 14.45031218 -15.30859375 17.11328125 C-16.29859375 16.78328125 -17.28859375 16.45328125 -18.30859375 16.11328125 C-9.32421875 7.12890625 -9.32421875 7.12890625 -7.74414062 5.57226562 C-6.51480616 4.3228604 -5.36343411 2.99756649 -4.23046875 1.66015625 C-2.30859375 0.11328125 -2.30859375 0.11328125 0 0 Z " fill="#115CAF" transform="translate(123.30859375,119.88671875)"/>
<path d="M0 0 C2.625 1.5625 2.625 1.5625 4.625 3.5625 C4.85540344 8.2857705 2.83787269 10.89233452 -0.0625 14.375 C-2.63074635 17.09486018 -4.12212562 18.46037766 -7.625 19.875 C-10.375 19.5625 -10.375 19.5625 -12.8125 18 C-14.375 15.5625 -14.375 15.5625 -14.25 12.375 C-13.96125 11.446875 -13.6725 10.51875 -13.375 9.5625 C-12.715 9.2325 -12.055 8.9025 -11.375 8.5625 C-11.375 11.5325 -11.375 14.5025 -11.375 17.5625 C-9.395 17.5625 -7.415 17.5625 -5.375 17.5625 C-5.0346875 16.758125 -5.0346875 16.758125 -4.6875 15.9375 C-3.375 13.5625 -3.375 13.5625 -0.75 10.5625 C2.03880196 7.67752061 2.03880196 7.67752061 1.625 3.5625 C-1.12461511 2.61642193 -1.12461511 2.61642193 -4.375 2.5625 C-7.2721941 4.87523442 -7.2721941 4.87523442 -9.375 7.5625 C-10.035 7.2325 -10.695 6.9025 -11.375 6.5625 C-4.50713913 -0.58425878 -4.50713913 -0.58425878 0 0 Z " fill="#1A9097" transform="translate(76.375,152.4375)"/>
<path d="M0 0 C0 0.66 0 1.32 0 2 C0.66 2 1.32 2 2 2 C2.391875 2.804375 2.78375 3.60875 3.1875 4.4375 C4.8525473 7.40122736 4.8525473 7.40122736 8.6875 7.8125 C10.3271875 7.9053125 10.3271875 7.9053125 12 8 C12 8.66 12 9.32 12 10 C6.73684211 10.52631579 6.73684211 10.52631579 4 10 C1.75 7.125 1.75 7.125 0 4 C-2.69815883 1.86008093 -3.99240811 1.99972886 -7.5 2.125 C-11.30550221 3.07637555 -12.48397078 4.1112257 -15 7 C-15.66 7 -16.32 7 -17 7 C-17.33 7.99 -17.66 8.98 -18 10 C-21.875 8.25 -21.875 8.25 -23 6 C-22.319375 6.12375 -21.63875 6.2475 -20.9375 6.375 C-17.53882431 5.94112651 -17.17269627 5.35859907 -14.875 3 C-10.43702151 -1.19197081 -5.78021447 -0.56443324 0 0 Z " fill="#1259AE" transform="translate(81,147)"/>
<path d="M0 0 C0 0.66 0 1.32 0 2 C-3.02734375 2.24414062 -3.02734375 2.24414062 -6.0546875 2.48828125 C-8.39519216 2.87393036 -8.39519216 2.87393036 -10 6 C-9.67 8.31 -9.34 10.62 -9 13 C-3.06 13.33 2.88 13.66 9 14 C8.67 14.66 8.34 15.32 8 16 C5.41554227 16.1081866 2.83562648 16.18737237 0.25 16.25 C-0.47960937 16.28351562 -1.20921875 16.31703125 -1.9609375 16.3515625 C-5.5253198 16.41636945 -7.55768194 16.32980472 -10.45703125 14.16796875 C-12.46486279 11.34683836 -12.92939349 9.45971898 -13 6 C-12.0625 3.25 -12.0625 3.25 -10 1 C-6.69053587 -0.3643097 -3.36283242 -1.68141621 0 0 Z " fill="#249896" transform="translate(150,7)"/>
<path d="M0 0 C3.09894683 3.61881373 5.28435139 7.19207144 7.3125 11.5 C7.84488281 12.6034375 8.37726563 13.706875 8.92578125 14.84375 C10.08680622 18.25505245 10.34206096 19.68104427 9 23 C7.0390625 24.984375 7.0390625 24.984375 4.625 26.75 C3.83351562 27.34296875 3.04203125 27.9359375 2.2265625 28.546875 C0 30 0 30 -3 31 C-3.99 30.01 -4.98 29.02 -6 28 C-4.783125 27.773125 -3.56625 27.54625 -2.3125 27.3125 C1.96614075 26.23141995 4.36522997 24.65468101 7 21 C6.56740904 15.71878534 3.73413667 11.4239303 1.27734375 6.83984375 C0 4 0 4 0 0 Z " fill="#1A9399" transform="translate(173,124)"/>
<path d="M0 0 C14.55741127 10.11482255 14.55741127 10.11482255 18 17 C18.30343947 20.48955396 18.39470082 22.37505704 16.5 25.375 C16.005 25.91125 15.51 26.4475 15 27 C14.34 26.67 13.68 26.34 13 26 C13.66 25.34 14.32 24.68 15 24 C15.36912273 19.84736931 15.03640407 16.66552733 13 13 C11.67300405 12.32080638 10.33855974 11.65610978 9 11 C7.56802957 9.92137292 6.17222053 8.79339025 4.8125 7.625 C4.11769531 7.03976563 3.42289063 6.45453125 2.70703125 5.8515625 C0.87598765 3.86548775 0.38925808 2.63765924 0 0 Z " fill="#1458AB" transform="translate(151,143)"/>
<path d="M0 0 C6.70178494 -0.21973065 13.26974255 0.1840722 19.9375 0.8125 C21.19880737 0.91763916 21.19880737 0.91763916 22.4855957 1.02490234 C23.68188599 1.14599365 23.68188599 1.14599365 24.90234375 1.26953125 C25.61898193 1.33760986 26.33562012 1.40568848 27.07397461 1.47583008 C29.43370709 2.11803386 30.43078122 3.16529219 32 5 C24.95890555 4.54101049 17.97818106 4.07356632 11 3 C8.34697847 2.78090663 5.69444569 2.56743043 3.0390625 2.37890625 C2.36617187 2.25386719 1.69328125 2.12882812 1 2 C0.67 1.34 0.34 0.68 0 0 Z " fill="#1E9999" transform="translate(127,91)"/>
<path d="M0 0 C2 0.8125 2 0.8125 3.3125 2.75 C3.6528125 3.7709375 3.6528125 3.7709375 4 4.8125 C3.67 5.4725 3.34 6.1325 3 6.8125 C0.69 6.8125 -1.62 6.8125 -4 6.8125 C-4 7.4725 -4 8.1325 -4 8.8125 C-5.65 9.1425 -7.3 9.4725 -9 9.8125 C-4.09080842 -0.38351329 -4.09080842 -0.38351329 0 0 Z " fill="#0AB0B1" transform="translate(86,165.1875)"/>
<path d="M0 0 C3.01802393 0.32627286 4.59691281 0.61081236 6.8125 2.75 C8.26376579 5.49976675 8.34463495 6.91642414 8 10 C5.54399752 13.95512087 2.35281481 18.09845414 -2.08984375 19.80078125 C-4 20.0625 -4 20.0625 -7 20 C-7 19.34 -7 18.68 -7 18 C-6.113125 17.773125 -5.22625 17.54625 -4.3125 17.3125 C-0.4179274 15.76936746 1.43090159 14.30312652 4 11 C5.32026414 7.51305609 5.32026414 7.51305609 5 4 C2.69931981 1.50789479 2.69931981 1.50789479 0 0 Z " fill="#1A9599" transform="translate(112,182)"/>
<path d="M0 0 C0 1.32 0 2.64 0 4 C-0.66 3.34 -1.32 2.68 -2 2 C-4.57061311 1.35232207 -4.57061311 1.35232207 -7 1 C-7.25394531 1.50789063 -7.50789063 2.01578125 -7.76953125 2.5390625 C-8.48411501 3.96823002 -9.20034368 5.39657594 -9.91796875 6.82421875 C-10.8429606 8.6842204 -11.73720013 10.55946181 -12.625 12.4375 C-14 15 -14 15 -16 16 C-14.35191642 9.79471562 -12.54911945 4.38092304 -9 -1 C-5.79937313 -2.60031344 -3.27728194 -1.03173691 0 0 Z " fill="#1358AF" transform="translate(48,73)"/>
<path d="M0 0 C0.33 0.99 0.66 1.98 1 3 C1.66 3 2.32 3 3 3 C3 2.01 3 1.02 3 0 C3.99 0.33 4.98 0.66 6 1 C5.01 1.495 5.01 1.495 4 2 C4.33 2.99 4.66 3.98 5 5 C4.34 5 3.68 5 3 5 C3.33 5.99 3.66 6.98 4 8 C-1.41538462 10.21538462 -1.41538462 10.21538462 -4.375 9.125 C-4.91125 8.75375 -5.4475 8.3825 -6 8 C-5.34 7.67 -4.68 7.34 -4 7 C-3.34 7.33 -2.68 7.66 -2 8 C-1.855625 6.865625 -1.71125 5.73125 -1.5625 4.5625 C-1 1 -1 1 0 0 Z " fill="#11ADAF" transform="translate(107,191)"/>
<path d="M0 0 C7.03482474 -0.23668569 13.1834265 0.2120463 20 2 C20 2.99 20 3.98 20 5 C19.67 4.34 19.34 3.68 19 3 C17.453125 3.2784375 17.453125 3.2784375 15.875 3.5625 C12.18129147 3.97953161 9.6095317 3.69118692 6 3 C4.00034285 2.96296931 1.99943335 2.95239444 0 3 C0 2.01 0 1.02 0 0 Z " fill="#085EC7" transform="translate(86,91)"/>
<path d="M0 0 C0.68449219 0.29777344 1.36898437 0.59554687 2.07421875 0.90234375 C2.40421875 2.22234375 2.73421875 3.54234375 3.07421875 4.90234375 C1.42421875 4.24234375 -0.22578125 3.58234375 -1.92578125 2.90234375 C-5.55578125 6.53234375 -9.18578125 10.16234375 -12.92578125 13.90234375 C-13.91578125 13.57234375 -14.90578125 13.24234375 -15.92578125 12.90234375 C-13.88086231 10.69574747 -11.81771689 8.5134933 -9.73828125 6.33984375 C-8.87106445 5.3972168 -8.87106445 5.3972168 -7.98632812 4.43554688 C-3.58061432 -0.11951316 -3.58061432 -0.11951316 0 0 Z " fill="#179997" transform="translate(109.92578125,55.09765625)"/>
<path d="M0 0 C0 0.66 0 1.32 0 2 C-0.87269531 2.36867188 -1.74539062 2.73734375 -2.64453125 3.1171875 C-6.52927048 5.29698297 -8.8392698 7.77086038 -11.6875 11.125 C-16.62192455 16.87397485 -16.62192455 16.87397485 -20 18 C-19.1875 16.0625 -19.1875 16.0625 -18 14 C-17.01 13.67 -16.02 13.34 -15 13 C-14.31379969 11.67661368 -13.65213539 10.34050052 -13 9 C-6.02040816 0 -6.02040816 0 0 0 Z " fill="#1A9999" transform="translate(124,113)"/>
<path d="M0 0 C0 3 0 3 -1.5 4.875 C-3.34643186 7.49077847 -3.4954665 8.86204548 -3 12 C-0.18490007 14.2773501 -0.18490007 14.2773501 3 14 C3.33 13.01 3.66 12.02 4 11 C4.99 11.33 5.98 11.66 7 12 C4.48516484 14.29927786 2.7642824 15.8544224 -0.625 16.5 C-3 16 -3 16 -4.875 14.375 C-6.44663887 11.05709572 -6.11497202 9.48428757 -5 6 C-3.47652027 3.80219318 -1.82909276 1.9697922 0 0 Z " fill="#239595" transform="translate(81,166)"/>
<path d="M0 0 C0.33 0.66 0.66 1.32 1 2 C-0.98 2 -2.96 2 -5 2 C-5.66 4.31 -6.32 6.62 -7 9 C-7.66 8.34 -8.32 7.68 -9 7 C-11.90802461 9.21928194 -13.95312762 10.92969143 -16 14 C-16.66 14 -17.32 14 -18 14 C-16.61536056 10.87250593 -15.00477577 8.7595015 -12.5625 6.375 C-11.96566406 5.78460938 -11.36882812 5.19421875 -10.75390625 4.5859375 C-7.26610471 1.43215705 -4.5792351 0.61056468 0 0 Z " fill="#199394" transform="translate(125,90)"/>
<path d="M0 0 C1.1055189 0.93590504 2.20935453 1.87379858 3.3125 2.8125 C3.92738281 3.33457031 4.54226562 3.85664062 5.17578125 4.39453125 C6.85424679 5.87172469 8.43882034 7.40039131 10 9 C12.95409701 7.62845496 15.44008376 6.01136276 18 4 C15.85882353 10.09411765 15.85882353 10.09411765 13 12 C10.6875 12.125 10.6875 12.125 8 11 C6.3023603 9.28563479 4.81160711 7.49885031 3.33203125 5.59375 C2.07063984 3.86886375 2.07063984 3.86886375 0 3 C0 2.01 0 1.02 0 0 Z " fill="#1B9A96" transform="translate(117,42)"/>
<path d="M0 0 C0 3.84032481 -1.03429238 4.44639549 -3.625 7.1875 C-7.3852864 11.26894965 -10.76127381 15.49767988 -14 20 C-14.66 19.67 -15.32 19.34 -16 19 C-11.19231392 12.17933967 -5.67375075 6.0998427 0 0 Z " fill="#179293" transform="translate(106,104)"/>
<path d="M0 0 C0 3.65803648 -0.72350988 4.1770985 -3.125 6.8125 C-4.07439453 7.85857422 -4.07439453 7.85857422 -5.04296875 8.92578125 C-7.64014564 11.67847771 -10.2910642 14.3571358 -13 17 C-13.66 16.67 -14.32 16.34 -15 16 C-13.625 14 -13.625 14 -12 12 C-11.34 12 -10.68 12 -10 12 C-9.75507812 11.42765625 -9.51015625 10.8553125 -9.2578125 10.265625 C-7.78889901 7.61975598 -6.04651756 5.85146861 -3.875 3.75 C-3.15054688 3.04359375 -2.42609375 2.3371875 -1.6796875 1.609375 C-1.12539062 1.07828125 -0.57109375 0.5471875 0 0 Z " fill="#1A9A9A" transform="translate(93,48)"/>
<path d="M0 0 C0.33 0.99 0.66 1.98 1 3 C-6.36199239 12.46541878 -6.36199239 12.46541878 -10.875 13.1875 C-14 13 -14 13 -16 11 C-14 10 -14 10 -11.5625 10.125 C-8.9437327 10.26574182 -8.9437327 10.26574182 -7.3125 8.5 C-6.879375 8.005 -6.44625 7.51 -6 7 C-5.34 7 -4.68 7 -4 7 C-4 6.34 -4 5.68 -4 5 C-3.34 5 -2.68 5 -2 5 C-1.34 3.35 -0.68 1.7 0 0 Z " fill="#1B989B" transform="translate(105,179)"/>
<path d="M0 0 C3.60571107 0.59283087 5.54429438 2.02741777 8.25 4.4375 C8.95640625 5.05496094 9.6628125 5.67242187 10.390625 6.30859375 C12 8 12 8 12 10 C13.32 10.66 14.64 11.32 16 12 C15.67 12.66 15.34 13.32 15 14 C12.68404334 12.04563141 10.37217632 10.08676589 8.0625 8.125 C7.40314453 7.56941406 6.74378906 7.01382813 6.06445312 6.44140625 C5.43603516 5.90644531 4.80761719 5.37148437 4.16015625 4.8203125 C3.57886963 4.32805176 2.99758301 3.83579102 2.39868164 3.32861328 C1 2 1 2 0 0 Z " fill="#1D959A" transform="translate(132,121)"/>
<path d="M0 0 C0.61875 0.86625 0.61875 0.86625 1.25 1.75 C3.88955125 5.14370875 5.86373451 7.62124484 10 9 C11.56118428 9.06740865 13.1250252 9.08514456 14.6875 9.0625 C15.49574219 9.05347656 16.30398437 9.04445312 17.13671875 9.03515625 C17.75160156 9.02355469 18.36648437 9.01195312 19 9 C18.67 9.66 18.34 10.32 18 11 C7.43526464 12.03163781 7.43526464 12.03163781 2.8125 8.3125 C0.57729177 6.07196985 0.05079075 5.33376781 -0.4375 2.125 C-0.2209375 1.073125 -0.2209375 1.073125 0 0 Z " fill="#165CAD" transform="translate(85,128)"/>
<path d="M0 0 C3.96 0 7.92 0 12 0 C12 0.99 12 1.98 12 3 C8.04 3 4.08 3 0 3 C0 2.01 0 1.02 0 0 Z " fill="#05A9A8" transform="translate(153,6)"/>
<path d="M0 0 C0.99 0.33 1.98 0.66 3 1 C-4.11389522 9.6309795 -4.11389522 9.6309795 -9 12 C-8.45015228 8.12488273 -6.72444669 6.40423494 -3.9375 3.75 C-3.20402344 3.04359375 -2.47054687 2.3371875 -1.71484375 1.609375 C-1.14894531 1.07828125 -0.58304688 0.5471875 0 0 Z " fill="#179997" transform="translate(155,25)"/>
<path d="M0 0 C2.9375 0.5625 2.9375 0.5625 4.875 2.25 C6.19710381 5.12752006 5.84741047 6.58461118 4.9375 9.5625 C4.6075 9.5625 4.2775 9.5625 3.9375 9.5625 C3.2775 7.5825 2.6175 5.6025 1.9375 3.5625 C-1.68778568 3.36109524 -3.92751708 3.70473235 -7.0625 5.5625 C-3.91418019 0.71893105 -3.91418019 0.71893105 0 0 Z " fill="#1E8F98" transform="translate(89.0625,160.4375)"/>
<path d="M0 0 C0.66 0 1.32 0 2 0 C2.70125 0.825 3.4025 1.65 4.125 2.5 C7.15572376 5.13541196 7.57163804 5.34560497 11.3125 5.3125 C12.529375 5.209375 13.74625 5.10625 15 5 C14 6.5625 14 6.5625 12 8 C8.35822585 8.15932762 5.10292462 7.74714249 2.0625 5.6875 C0.87716109 3.80490291 0.37670083 2.18486483 0 0 Z " fill="#1A8993" transform="translate(89,126)"/>
<path d="M0 0 C2.29158942 2.89818662 4.07862366 5.83140544 5.75 9.125 C6.19859375 9.99382812 6.6471875 10.86265625 7.109375 11.7578125 C7.40328125 12.49773437 7.6971875 13.23765625 8 14 C7.67 14.66 7.34 15.32 7 16 C6.38125 15.030625 5.7625 14.06125 5.125 13.0625 C3.34321154 9.97164638 3.34321154 9.97164638 1 9 C0.5859375 6.93359375 0.5859375 6.93359375 0.375 4.4375 C0.30023438 3.61121094 0.22546875 2.78492187 0.1484375 1.93359375 C0.09945312 1.29550781 0.05046875 0.65742187 0 0 Z " fill="#1A989F" transform="translate(165,108)"/>
<path d="M0 0 C0.66 0.33 1.32 0.66 2 1 C1.31164062 1.76183594 1.31164062 1.76183594 0.609375 2.5390625 C-2.94679662 6.52854915 -6.16708282 10.46733251 -9 15 C-9.7734375 13.32421875 -9.7734375 13.32421875 -10 11 C-8.1640625 8.45703125 -8.1640625 8.45703125 -5.625 5.8125 C-4.79226562 4.93207031 -3.95953125 4.05164063 -3.1015625 3.14453125 C-1 1 -1 1 0 0 Z " fill="#1B9696" transform="translate(110,183)"/>
<path d="M0 0 C0.33 0.66 0.66 1.32 1 2 C0.08476562 2.55429688 -0.83046875 3.10859375 -1.7734375 3.6796875 C-2.97404875 4.41130998 -4.17456463 5.14308898 -5.375 5.875 C-5.97828125 6.23980469 -6.5815625 6.60460937 -7.203125 6.98046875 C-9.70511595 8.50946322 -11.91871354 9.91871354 -14 12 C-13.64537771 9.22312716 -13.24613432 8.20868995 -11.07421875 6.3671875 C-10.28660156 5.87476562 -9.49898437 5.38234375 -8.6875 4.875 C-7.90761719 4.37742187 -7.12773437 3.87984375 -6.32421875 3.3671875 C-4.25120977 2.14777045 -2.16688646 1.04129555 0 0 Z " fill="#115AAA" transform="translate(176,80)"/>
<path d="M0 0 C0.33 0 0.66 0 1 0 C1.103125 1.093125 1.20625 2.18625 1.3125 3.3125 C1.73329605 6.83547709 1.73329605 6.83547709 3.1875 8.875 C5.69974914 10.43432705 8.09150946 10.67683438 11 11 C11 11.33 11 11.66 11 12 C3.75057208 12.60411899 3.75057208 12.60411899 0.4375 9.9375 C-1.39653373 6.18969194 -0.94019354 3.99582254 0 0 Z " fill="#1B9091" transform="translate(77,65)"/>
<path d="M0 0 C0.99 0.66 1.98 1.32 3 2 C3.5 5.3125 3.5 5.3125 3 9 C0.5 11.9375 0.5 11.9375 -2 14 C-1.51514721 11.73735366 -1.03063056 10.04997617 0.1875 8.0625 C1.28831113 5.90456627 1.28831113 5.90456627 0.125 3.25 C-0.24625 2.5075 -0.6175 1.765 -1 1 C-0.67 0.67 -0.34 0.34 0 0 Z " fill="#13A2A5" transform="translate(90,163)"/>
<path d="M0 0 C1.65 0.33 3.3 0.66 5 1 C3 4 3 4 -0.875 4.8125 C-4.15014529 5.1221501 -6.23184713 4.96077495 -9 3 C-5.92382812 2.70703125 -5.92382812 2.70703125 -2.84765625 2.4140625 C-2.23792969 2.27742187 -1.62820312 2.14078125 -1 2 C-0.67 1.34 -0.34 0.68 0 0 Z " fill="#0360D0" transform="translate(104,136)"/>
<path d="M0 0 C3.72390287 2.36975637 7.09634199 4.64962537 10 8 C10 8.66 10 9.32 10 10 C5.86360664 8.40907948 2.76786752 5.39525082 0 2 C0 1.34 0 0.68 0 0 Z " fill="#0B4EB4" transform="translate(139,158)"/>
<path d="M0 0 C2.875 2.5 2.875 2.5 5 5 C1.125 4.125 1.125 4.125 0 3 C-2.67058851 2.85884839 -5.32432238 2.95752893 -8 3 C-8 2.34 -8 1.68 -8 1 C-5.11138291 -0.44430855 -3.20352299 -0.37688506 0 0 Z " fill="#1C9694" transform="translate(112,37)"/>
<path d="M0 0 C1.98 0.495 1.98 0.495 4 1 C4 2.98 4 4.96 4 7 C3.01 7 2.02 7 1 7 C-1 4 -1 4 -0.625 1.8125 C-0.41875 1.214375 -0.2125 0.61625 0 0 Z " fill="#16A6A6" transform="translate(114,56)"/>
<path d="M0 0 C3.85645478 1.13940709 7.06505829 2.17794066 10 5 C10 5.99 10 6.98 10 8 C6.05205855 6.32971708 3.18203882 3.8204435 0 1 C0 0.67 0 0.34 0 0 Z " fill="#19989F" transform="translate(148,135)"/>
<path d="M0 0 C0.66 0 1.32 0 2 0 C2.4125 0.804375 2.825 1.60875 3.25 2.4375 C4.80803511 5.32499092 4.80803511 5.32499092 8.1875 5.8125 C9.5796875 5.9053125 9.5796875 5.9053125 11 6 C9.3125 7.125 9.3125 7.125 7 8 C3.19897739 7.00449408 2.22768322 6.34152484 0 3 C0 2.01 0 1.02 0 0 Z " fill="#1E9793" transform="translate(170,47)"/>
<path d="M0 0 C2.38307475 2.38307475 2.43195787 3.75404497 3 7 C3.33 7.66 3.66 8.32 4 9 C3.34 9 2.68 9 2 9 C1.67 9.66 1.34 10.32 1 11 C0.34 10.67 -0.32 10.34 -1 10 C-0.67 6.7 -0.34 3.4 0 0 Z " fill="#0FA3A3" transform="translate(170,35)"/>
<path d="M0 0 C0 4.31618166 -2.13270348 5.92789659 -5 9 C-5.66 9 -6.32 9 -7 9 C-5.44499019 5.18315774 -2.96404505 2.80804268 0 0 Z " fill="#1D9695" transform="translate(102,39)"/>
<path d="M0 0 C0.33 0.99 0.66 1.98 1 3 C-1.5958956 5.87402727 -3.21369298 7.24432948 -7 8 C-6.02133662 6.85373678 -5.04205413 5.70800212 -4.0625 4.5625 C-3.51722656 3.92441406 -2.97195312 3.28632812 -2.41015625 2.62890625 C-1.63204305 1.73008851 -0.84063472 0.84063472 0 0 Z " fill="#229E9F" transform="translate(144,36)"/>
<path d="M0 0 C1.65 0.33 3.3 0.66 5 1 C3.515 2.485 3.515 2.485 2 4 C2.33 4.99 2.66 5.98 3 7 C1.68 6.67 0.36 6.34 -1 6 C-0.67 4.02 -0.34 2.04 0 0 Z " fill="#1BA6AA" transform="translate(177,7)"/>
<path d="M0 0 C0.33 0.66 0.66 1.32 1 2 C-0.98 2 -2.96 2 -5 2 C-5.66 4.31 -6.32 6.62 -7 9 C-7.66 7.68 -8.32 6.36 -9 5 C-7.875 3.0625 -7.875 3.0625 -6 1 C-2.8125 0.25 -2.8125 0.25 0 0 Z " fill="#1BA09E" transform="translate(125,90)"/>
<path d="M0 0 C3.96 1.98 3.96 1.98 8 4 C8 4.99 8 5.98 8 7 C6.66144944 6.21718695 5.32926356 5.42348123 4 4.625 C3.2575 4.18414062 2.515 3.74328125 1.75 3.2890625 C1.1725 2.86367187 0.595 2.43828125 0 2 C0 1.34 0 0.68 0 0 Z " fill="#0F50B6" transform="translate(50,75)"/>
<path d="M0 0 C0.99 0 1.98 0 3 0 C3.66 2.64 4.32 5.28 5 8 C4.34 8 3.68 8 3 8 C2.896875 7.360625 2.79375 6.72125 2.6875 6.0625 C2.460625 5.381875 2.23375 4.70125 2 4 C1.01 3.67 0.02 3.34 -1 3 C-0.67 2.01 -0.34 1.02 0 0 Z " fill="#0667CC" transform="translate(55,145)"/>
<path d="M0 0 C1.65 0 3.3 0 5 0 C5.33 0.99 5.66 1.98 6 3 C4.02 3 2.04 3 0 3 C0 2.01 0 1.02 0 0 Z " fill="#0B5BBC" transform="translate(86,91)"/>
<path d="M0 0 C-0.66 1.32 -1.32 2.64 -2 4 C-4.31 4 -6.62 4 -9 4 C-8.67 3.34 -8.34 2.68 -8 2 C-6.02 2.495 -6.02 2.495 -4 3 C-4 2.34 -4 1.68 -4 1 C-2 0 -2 0 0 0 Z " fill="#0BA2A0" transform="translate(91,72)"/>
<path d="M0 0 C0 0.66 0 1.32 0 2 C-2.64 2 -5.28 2 -8 2 C-8 1.34 -8 0.68 -8 0 C-2.25 -1.125 -2.25 -1.125 0 0 Z " fill="#1CA3A5" transform="translate(150,7)"/>
</svg>
